<svg xmlns="http://www.w3.org/2000/svg" width="54" height="50" viewBox="0 0 54 50"><defs><clipPath id="wfpua"><path fill="#fff" d="M20 35a3 3 0 0 1-3-3V18a3 3 0 0 1 3-3h14a3 3 0 0 1 3 3v14a3 3 0 0 1-3 3z"/></clipPath></defs><g><g><path fill="#fff" d="M20 35a3 3 0 0 1-3-3V18a3 3 0 0 1 3-3h14a3 3 0 0 1 3 3v14a3 3 0 0 1-3 3z"/><path fill="none" stroke="#000" stroke-miterlimit="20" stroke-width="2" d="M20 35a3 3 0 0 1-3-3V18a3 3 0 0 1 3-3h14a3 3 0 0 1 3 3v14a3 3 0 0 1-3 3z" clip-path="url(&quot;#wfpua&quot;)"/></g><g><path fill="none" stroke="#000" stroke-linecap="round" stroke-miterlimit="20" stroke-width="2" d="M20.94 24.18v0l4.804 5.789v0l7.317-9.938v0"/></g></g></svg>