<svg xmlns="http://www.w3.org/2000/svg" width="569" height="353"><path fill="#fff" d="M541.693 332.812c14.593-9.118 23.733-21.808 26.228-38.9C578.44 221.839 477.4 25.893 320.88 3.027c-64.427-9.396-128.22 11.977-181.727 45.41C62.646 96.246 7.18 168.724.985 211.142-9.525 283.2 115.57 314.104 272.105 336.96c119.434 17.457 222.666 25.174 269.588-4.147"/><path d="M173.382 269.555h-2.643v1.377h1.522v12.105h1.504v-13.08c-.064-.201-.173-.338-.383-.402zm7.598 0h-2.553v1.376h1.56l.728 6.217c-.346.648-.792 1.477-.939 1.696-.136.219-.246.31-.473.31l-1.276.018v1.404h1.95l1.003-2.07.374 2.07h1.257l-1.257-10.62c-.064-.2-.164-.337-.374-.4zm7.852 0h-2.643v1.377h1.504v9.644h1.504v-10.629c-.064-.21-.155-.328-.365-.392zm9.868-.136h-.018c-.884.018-1.65.4-2.233 1.167l-.1-.256c-.237-.474-.347-.71-.456-.784l-2.452.01v1.394h1.777l.365.592-.766 1.195-.747 7.839h1.513l.702-7.803c.11-.2.428-.739.602-.957.464-.665.911-.984 1.513-.984.729-.01 1.376.41 1.404 1.631l.127 6.737h-2.024v1.376h3.482l.028-1.468-.119-6.717c-.027-2.234-1.24-2.99-2.598-2.972zm17.373.136h-3.874v1.377h3.491c.666 0 1.185.455 1.185 1.467v8.177h1.504v-8.377c0-2.07-1.203-2.59-2.306-2.644zm9.01 0h-2.643v1.377h1.504v9.644h1.504v-10.629c-.064-.21-.155-.328-.365-.392zm7.16 0h-2.607v1.377h1.486v4.968h1.513l-.018-5.944c-.064-.2-.164-.337-.374-.401zm11.18 0h-6.599v1.377h4.266v9.644h1.504v-9.644h1.121v-1.058a.512.512 0 00-.292-.319zm10.296.401c-.064-.2-.174-.337-.383-.401h-5.67v1.377h4.549l.009 8.267h-4.686v1.377h7.31v-1.377h-1.111zm17.856 9.244h-3.965v-8.268h3.965zm1.13-9.645h-7.228v1.377h1.111l-.455.738v8.906h6.955l-.009-10.62c-.055-.2-.164-.337-.374-.401zm7.177 0h-2.606v1.377h1.485v4.968h1.514l-.019-5.944c-.063-.2-.164-.337-.374-.401zm7.152 0h-2.607v1.377h1.485v4.968h1.513l-.018-5.944c-.063-.2-.164-.337-.373-.401zm10.314 0h-5.533v1.376h1.049v9.645h1.494v-9.645h2.617c.537 0 1.185.329 1.185 1.468v8.177h1.495v-8.368c0-2.079-1.204-2.616-2.307-2.653zm6.849 11.021v-7.302h1.486v7.302z"/><path d="M310.568 269.555h-6.462v1.377h5.341v9.644h1.504l-.009-10.62c-.063-.2-.164-.337-.374-.401zm19.105 0h-7.42v1.376h1.514l-.383.739.118 7.53h-1.604v1.376h3.053l.037-1.477-.146-8.168h3.71v9.645h1.513l-.009-10.62c-.064-.2-.173-.337-.383-.4zm7.187 0h-2.644v1.377h1.505v9.644h1.504v-10.629c-.064-.21-.156-.328-.365-.392zm7.962 0h-2.734v1.376h1.622v7.384c0 .602-.264.875-.81.875h-1.432v1.386h1.933c1.002 0 1.795-.584 1.795-1.915v-8.705c-.064-.2-.164-.337-.374-.4zm9.878-.136h-.02c-.884.018-1.65.4-2.232 1.167l-.101-.256c-.237-.474-.347-.71-.456-.784l-2.451.01v1.394h1.777l.364.592-.765 1.195-.748 7.839h1.513l.702-7.803c.11-.2.428-.739.602-.957.465-.665.911-.984 1.513-.984.73-.01 1.377.41 1.404 1.631l.127 6.737h-2.023v1.376h3.482l.028-1.468-.12-6.717c-.027-2.234-1.239-2.99-2.597-2.972zm9.373.136h-2.644v1.377h1.505v9.644h1.504v-10.629c-.064-.21-.156-.328-.365-.392zm10.332 6.518l1.997-4.74c.11-.246.145-.347.154-.438l-.009-1.057a.436.436 0 00-.282-.283h-2.607l.018 1.395h1.568v.036l-1.568 3.71-2.907-5.14h-1.65v.063l1.586 2.716-.092.073c-.538.43-1.14.93-1.386 1.75-.182.63-.136 1.286.165 2.18l.957 2.916h-1.495l.01 1.322h2.998v-1.267l-1.285-3.491c-.438-1.267.055-1.906.747-2.352l1.595 2.835 2.288 4.275h1.56l.018-.09zm-185.482-30.595h-15.13v-29.282h15.13zm1.709-32.45l-.055-.017h-22.232v3.185h3.067l-.665 1.502v30.966h21.225v-34.09l-.013-.1c-.193-.702-.483-1.188-1.327-1.447zm15.112 1.434c-.228-.699-.537-1.182-1.37-1.435l-.054-.016h-7.258v3.196h5.615v16.872h3.146l-.06-18.56zm13.426-1.435l-.054-.016h-7.653v3.186h5.99v25.94c0 2.292-.937 3.314-3.04 3.314h-5.374v3.213h5.492c3.714 0 6.021-2.479 6.021-6.47v-27.68l-.019-.057c-.232-.715-.53-1.178-1.363-1.43zm14.1.001l-.055-.017h-7.437v3.185h5.705v32.469h3.083v-34.206l-.017-.054c-.226-.731-.475-1.124-1.279-1.377zm18.184-.018h-11.517v3.187h11.517c2.965 0 4.666 2.05 4.666 5.623v26.844h3.05v-26.902c0-6.918-4.185-8.577-7.716-8.751zm89.851 1.43l-.018-.057c-.229-.702-.538-1.188-1.376-1.441l-.053-.016h-7.29v3.208h5.641v16.953h3.158l-.061-18.587zm14.864 27.81v-27.815l-.019-.056c-.225-.7-.533-1.184-1.37-1.437l-.053-.016h-7.689v3.198h6.02v26.068c0 2.304-.943 3.332-3.056 3.332h-5.4v3.225h5.517c3.732 0 6.05-2.49 6.05-6.499zm16.346 6.5h2.956l-4.09-34.327-.016-.072c-.225-.698-.52-1.152-1.366-1.409l-.054-.016h-7.2v3.197h5.695L371.05 238c-1.275 2.371-3.35 5.998-3.952 6.903-.452.676-.507.738-.957.738h-5.005v3.11h7.196l3.331-6.217zm-61.486-35.484l-6.44-.015-.075 3.172h4.841l-.028 13.055c-.028 7.105-.04 10.045-1.896 12.582-2.26 3.107-5.916 3.427-9.472 3.482l-9.365.004c-3.973 0-7.403.002-7.49.003l-7.152.027-.154-6.287 16.845-3.806c.821-.235 1.363-.928 1.452-1.854l.002-18.819-.01-.084c-.154-.682-.428-1.191-1.26-1.457l-.056-.018h-6.275l.037 3.177h4.477v16.515l-15.317 3.424-.508-21.625-.013-.09c-.202-.742-.543-1.102-1.299-1.378l-.063-.024h-6.336v3.173h4.69l.834 32.327 10.281-.029 4.999-.001 11.27-.005v.006l.386-.005.043-.001h.149l.375-.006v-.008c5.984-.16 9.342-1.574 11.495-4.828 2.004-3.013 2.436-5.568 2.436-14.393v-14.796l-.023-.063c-.26-.71-.544-1.114-1.38-1.355z"/><path fill="#bae15b" d="M262.85 129.715c-1.21 0-2.227.416-3.013 1.342-3.312 3.906-4.588 19.355 3.893 26.55 3.491 2.961 8.091 4.063 12.528 4.063 6.343 0 12.351-2.255 14.3-4.553 3.313-3.905-2.995-10.409-11.478-17.604-6.47-5.491-12.339-9.798-16.23-9.798"/><path fill="#67b297" d="M310.235 145.194c-4.773 0-9.27 12.862-22.918 18.459-12.835 5.268-11.473 25.092-5.806 29.288.74.549 1.604.795 2.558.795 6.35 0 16.71-10.93 21.473-16.842 9.348-11.603 12.271-26.8 6.604-30.994-.655-.485-1.286-.706-1.91-.706"/><path fill="#f4956b" d="M270.345 187.043c5.176-4.508-4.906-19.578-10.224-26.213-9.075-11.32-22.914-17.283-28.088-12.772-5.179 4.504 8.893 11.325 11.678 27.328 2.32 13.308 21.456 16.165 26.634 11.657"/><path d="M287.148 129.892a2.543 2.543 0 01-2.456-1.48c-4.738.661-9.233 2.845-12.708 6.141-6.317 5.987-8.563 15.448-5.832 23.684 1.198 3.614 3.314 7.34 2.891 11.275-.45 4.173-3.827 6.53-7.305 8.232.009.056.015.112.018.167a2.415 2.415 0 11-2.548-2.274c.88-.049 1.68.38 2.137 1.063 1.977-.954 3.97-2.094 5.27-3.877 1.375-1.884 1.573-4.17 1.125-6.403-.819-4.053-2.994-7.667-3.602-11.788a24.503 24.503 0 011.374-12.375c3.102-8.007 10.534-13.703 18.949-14.93a2.544 2.544 0 015.081-.116 2.54 2.54 0 01-2.394 2.68z"/></svg>