<svg xmlns="http://www.w3.org/2000/svg" width="68" height="62"><path fill="#6bb7b2" d="M22.714 45.476C14.4 41.65 8.649 33.412 8.649 23.866c0-13.194 10.988-23.89 24.542-23.89 13.552 0 24.54 10.696 24.54 23.89 0 9.546-5.75 17.783-14.063 21.61L33.191 61.359z"/><path d="M63.14 20.65a2.919 2.919 0 01-1.067-3.114c-4.655-2.915-10.22-4.311-15.71-3.976-9.974.602-18.932 7.267-22.608 16.525-1.614 4.064-2.501 8.902-5.778 12.051-3.477 3.338-8.185 2.92-12.501 1.85a1.77 1.77 0 01-.107.16 2.773 2.773 0 11-.564-3.881 2.765 2.765 0 011.096 2.513c2.444.62 5.037 1.087 7.496.479 2.6-.643 4.461-2.507 5.715-4.803 2.271-4.169 3.025-8.952 5.532-13.026 2.526-4.103 6.116-7.548 10.342-9.87 8.636-4.752 19.377-4.277 27.683.854a2.92 2.92 0 014.556 3.646 2.917 2.917 0 01-4.084.593z"/></svg>