<svg xmlns="http://www.w3.org/2000/svg" width="68" height="62" viewBox="0 0 68 62"><g><g><g><path fill="#6bb7b2" d="M22.714 45.476C14.4 41.65 8.649 33.412 8.649 23.866c0-13.194 10.988-23.89 24.542-23.89 13.552 0 24.54 10.696 24.54 23.89 0 9.546-5.75 17.783-14.063 21.61L33.191 61.359z"/></g><g transform="rotate(40 34.12 30.39)"><path d="M50.091 4.275a2.919 2.919 0 0 1-2.82-1.7c-5.44.76-10.6 3.267-14.59 7.052-7.254 6.873-9.832 17.737-6.697 27.192 1.376 4.15 3.806 8.427 3.32 12.946-.518 4.791-4.394 7.497-8.388 9.452.01.064.018.127.021.191a2.773 2.773 0 1 1-2.926-2.61 2.765 2.765 0 0 1 2.455 1.22c2.27-1.096 4.557-2.405 6.05-4.451 1.579-2.164 1.806-4.788 1.291-7.353-.94-4.653-3.437-8.802-4.135-13.534-.703-4.767-.167-9.714 1.578-14.208C28.81 9.28 37.344 2.74 47.005 1.331a2.92 2.92 0 0 1 5.834-.135 2.917 2.917 0 0 1-2.748 3.079z"/></g></g></g></svg>