<svg xmlns="http://www.w3.org/2000/svg" width="46" height="115" viewBox="0 0 46 115"><g><g><g transform="rotate(-36 27.755 72.865)"><path fill="#cddb75" d="M49.043 36.042c-7.242 0-14.064 19.512-34.77 28.004-19.472 7.992-17.406 38.067-8.808 44.434 1.122.832 2.433 1.207 3.88 1.207 9.633 0 25.35-16.582 32.577-25.553 14.182-17.603 18.618-40.66 10.02-47.02-.995-.737-1.95-1.072-2.899-1.072"/></g><g transform="rotate(-36 27.755 72.865)"><path fill="#f1ab87" d="M49.043 36.042c-7.242 0-14.064 19.512-34.77 28.004-19.472 7.992-17.406 38.067-8.808 44.434 1.122.832 2.433 1.207 3.88 1.207 9.633 0 25.35-16.582 32.577-25.553 14.182-17.603 18.618-40.66 10.02-47.02-.995-.737-1.95-1.072-2.899-1.072"/></g><g><g transform="rotate(-33 21.105 39.865)"><path d="M36.244 10.85a3.687 3.687 0 0 1-3.562-2.146c-6.872.96-13.39 4.127-18.431 8.907-9.162 8.683-12.42 22.406-8.459 34.35 1.739 5.242 4.808 10.645 4.194 16.353-.654 6.052-3.954 7.928-3.98 7.937-.05.024-.964-.979-.972-.932-.017-.009-.456.382 1.43-2.203 1.994-2.733 2.28-6.048 1.631-9.287-1.187-5.878-4.341-11.12-5.224-17.097-.887-6.021-.21-12.27 1.994-17.947C9.363 17.172 20.142 8.91 32.346 7.132a3.689 3.689 0 0 1 7.37-.17 3.685 3.685 0 0 1-3.472 3.888z"/></g><g transform="rotate(-180 28.05 87.88)"><path d="M28.047 76.881l12 22h-24z"/></g></g></g></g></svg>