<svg xmlns="http://www.w3.org/2000/svg" width="46" height="115"><path fill="#cddb75" d="M23.333 30.562c-5.859 4.257.091 24.052-11.669 43.093-11.055 17.91 8.294 41.028 18.992 41.125 1.397.013 2.678-.454 3.848-1.304 7.794-5.662 10.762-28.316 11.336-39.821 1.127-22.577-8.837-43.838-19.531-43.93-1.238-.011-2.208.279-2.976.837"/><path fill="#f1ab87" d="M23.333 30.562c-5.859 4.257.091 24.052-11.669 43.093-11.055 17.91 8.294 41.028 18.992 41.125 1.397.013 2.678-.454 3.848-1.304 7.794-5.662 10.762-28.316 11.336-39.821 1.127-22.577-8.837-43.838-19.531-43.93-1.238-.011-2.208.279-2.976.837"/><path d="M17.999 7.286a3.687 3.687 0 01-4.156.14C8.603 11.974 4.86 18.18 3.236 24.934.282 37.206 5.023 50.49 14.85 58.35c4.314 3.449 9.83 6.309 12.424 11.43 2.748 5.432 1.002 8.803.985 8.824-.029.048-1.342-.296-1.323-.252-.019.002-.174.569 0-2.626.184-3.378-1.382-6.314-3.69-8.677-4.197-4.284-9.697-6.962-13.693-11.494C5.53 50.99 2.693 45.38 1.45 39.417-1.102 27.228 3.438 14.428 12.705 6.291a3.689 3.689 0 016.088-4.157A3.685 3.685 0 0118 7.286z"/><path d="M28.053 98.879l-12-22h24z"/></svg>