<svg xmlns="http://www.w3.org/2000/svg" width="54" height="50"><defs><clipPath id="a"><path fill="#fff" d="M20 35a3 3 0 01-3-3V18a3 3 0 013-3h14a3 3 0 013 3v14a3 3 0 01-3 3z"/></clipPath></defs><path fill="#fff" d="M20 35a3 3 0 01-3-3V18a3 3 0 013-3h14a3 3 0 013 3v14a3 3 0 01-3 3z"/><path fill="none" stroke="#000" stroke-miterlimit="20" stroke-width="2" d="M20 35a3 3 0 01-3-3V18a3 3 0 013-3h14a3 3 0 013 3v14a3 3 0 01-3 3z" clip-path="url(&quot;#a&quot;)"/><path fill="none" stroke="#000" stroke-linecap="round" stroke-miterlimit="20" stroke-width="2" d="M20.94 24.18v0l4.804 5.789v0l7.317-9.938v0"/></svg>