<svg xmlns="http://www.w3.org/2000/svg" width="196" height="122"><defs><filter id="a" width="189.15" height="179.17" x="2.07" y="-14.84" filterUnits="userSpaceOnUse"><feOffset dx="2.12" dy="-2.12" in="SourceGraphic" result="FeOffset1024Out"/><feGaussianBlur in="FeOffset1024Out" result="FeGaussianBlur1025Out" stdDeviation="2.4 2.4"/></filter></defs><g filter="url(#a)" transform="rotate(135 95.585 75.805)"><path fill="none" d="M43.247 3.278c-5.492 0-10.112 1.889-13.678 6.092C14.53 27.1 8.739 97.227 47.237 129.89c15.85 13.44 36.731 18.444 56.869 18.444 28.794 0 56.067-10.236 64.917-20.67 15.034-17.727-13.6-47.25-52.104-79.912C87.544 22.826 60.907 3.278 43.247 3.278"/></g><path fill="#fff" d="M183.878 90.08c3.883-3.883 5.814-8.485 5.364-13.979-1.903-23.17-47.395-76.853-97.714-72.727-20.71 1.704-39.014 12.93-53.254 27.17-20.36 20.36-32.407 46.884-31.287 60.52 1.904 23.165 43.027 23.794 93.35 19.663 38.396-3.146 71.053-8.159 83.54-20.646"/><path d="M35.353 91.343h-1.14v.594h.657v5.22h.649v-5.641c-.028-.087-.075-.146-.166-.173zm3.277 0h-1.1v.594h.672l.314 2.681c-.149.28-.342.637-.405.731-.059.095-.106.134-.204.134l-.55.008v.606h.841l.432-.893.162.893h.542l-.542-4.581c-.028-.086-.071-.145-.162-.173zm3.387 0h-1.14v.594h.649v4.16h.649v-4.585c-.028-.09-.067-.142-.158-.169zm4.256-.059h-.007a1.203 1.203 0 00-.964.504l-.043-.11c-.102-.205-.15-.307-.197-.338l-1.057.003v.602h.767l.157.255-.33.516-.323 3.38h.653l.302-3.365c.048-.086.185-.318.26-.413.2-.286.393-.424.653-.424.314-.004.593.177.605.704l.055 2.905h-.873v.593h1.502l.012-.632-.051-2.898c-.012-.963-.535-1.29-1.12-1.282zm7.493.059h-1.67v.594H53.6c.288 0 .512.196.512.633v3.527h.648v-3.614c0-.892-.519-1.117-.995-1.14zm3.887 0h-1.14v.594h.648v4.16h.649v-4.585c-.028-.09-.067-.142-.157-.169zm3.087 0h-1.124v.594h.641v2.142h.653l-.008-2.563c-.027-.086-.07-.146-.161-.173zm4.823 0h-2.846v.594h1.84v4.16h.648v-4.16h.484v-.456a.22.22 0 00-.126-.138zm4.44.173c-.027-.087-.074-.146-.165-.173h-2.445v.594h1.962l.004 3.566h-2.021v.593h3.153v-.593h-.48zm7.702 3.987h-1.71v-3.566h1.71zm.488-4.16h-3.118v.594h.48l-.197.318v3.841h3l-.004-4.58c-.024-.086-.071-.146-.161-.173zm3.095 0h-1.124v.594h.64v2.142h.653l-.007-2.563c-.028-.086-.071-.146-.162-.173zm3.084 0h-1.124v.594h.641v2.142h.652l-.007-2.563c-.028-.086-.071-.146-.162-.173zm4.449 0h-2.386v.594h.452v4.16h.645v-4.16h1.128c.232 0 .511.141.511.633v3.527h.645v-3.61c0-.896-.519-1.128-.995-1.144zm2.954 4.753v-3.149h.641v3.15z"/><path d="M94.523 91.343h-2.787v.594h2.304v4.16h.648l-.004-4.581c-.027-.086-.07-.146-.16-.173zm8.241 0h-3.2v.594h.652l-.165.318.05 3.248h-.691v.594h1.317l.016-.638-.063-3.522h1.6v4.16h.653l-.004-4.581c-.028-.086-.075-.145-.165-.173zm3.099 0h-1.14v.594h.649v4.16h.648v-4.585c-.027-.09-.066-.142-.157-.169zm3.434 0h-1.18v.594h.7v3.184c0 .26-.113.378-.35.378h-.616v.598h.833c.433 0 .775-.252.775-.826v-3.755c-.028-.086-.071-.145-.162-.173zm4.261-.059h-.009a1.203 1.203 0 00-.963.504l-.043-.11c-.102-.205-.15-.307-.196-.338l-1.058.003v.602h.767l.157.255-.33.516-.323 3.38h.653l.303-3.365a4.08 4.08 0 01.26-.413c.2-.286.392-.424.652-.424.314-.004.593.177.605.704l.055 2.905h-.873v.593h1.502l.012-.632-.051-2.898c-.012-.963-.535-1.29-1.12-1.282zm4.042.059h-1.14v.594h.649v4.16h.649v-4.585c-.028-.09-.067-.142-.158-.169zm4.457 2.811l.861-2.044a.666.666 0 00.067-.189l-.004-.456a.188.188 0 00-.122-.122h-1.124l.007.602h.677v.015l-.677 1.6-1.254-2.217h-.712v.028l.685 1.171-.04.032c-.232.185-.491.4-.597.755-.079.271-.06.554.07.94l.413 1.257h-.645l.005.57h1.293v-.546l-.554-1.506c-.19-.546.023-.822.322-1.014l.688 1.223.987 1.844h.672l.008-.04zM42.056 80.958h-6.525v-12.63h6.525zm.737-13.996l-.023-.007h-9.59v1.374h1.324l-.287.648v13.356h9.155V67.629l-.006-.043c-.083-.303-.208-.513-.573-.624zm6.519.618c-.099-.3-.232-.51-.592-.618l-.023-.007h-3.13v1.378h2.422v7.277h1.357l-.026-8.005zm5.79-.618l-.023-.007h-3.3v1.374h2.583v11.189c0 .988-.404 1.429-1.311 1.429h-2.319v1.385h2.37c1.601 0 2.596-1.069 2.596-2.79V67.603l-.008-.024c-.1-.309-.229-.509-.588-.617zm6.082 0l-.024-.007h-3.207v1.374h2.46v14.004h1.33V67.58l-.008-.024c-.097-.315-.204-.484-.551-.594zm7.843-.007h-4.968v1.374h4.968c1.279 0 2.012.884 2.012 2.425v11.578h1.316V70.73c0-2.984-1.806-3.7-3.328-3.774zm38.753.616l-.007-.024c-.1-.303-.233-.513-.594-.622l-.023-.007h-3.144v1.384h2.433v7.312h1.362l-.026-8.017zm6.411 11.995V67.569l-.008-.024c-.097-.302-.23-.511-.59-.62l-.024-.007h-3.316v1.38h2.596V79.54c0 .994-.406 1.437-1.318 1.437h-2.328v1.391h2.379c1.61 0 2.61-1.074 2.61-2.803zm7.051 2.804h1.275l-1.764-14.806-.007-.03c-.097-.302-.225-.498-.59-.609l-.023-.007h-3.105v1.38h2.456l1.126 9.434c-.55 1.023-1.445 2.587-1.705 2.978-.195.291-.218.318-.412.318h-2.16v1.341h3.105l1.436-2.68zm-26.52-15.305l-2.778-.007-.032 1.369H94l-.012 5.63c-.012 3.065-.017 4.333-.818 5.427-.974 1.34-2.551 1.478-4.085 1.502a8390.512 8390.512 0 01-7.27.003L78.73 81l-.066-2.711 7.265-1.642c.354-.1.588-.4.627-.8v-8.116l-.004-.036c-.067-.295-.185-.514-.543-.629l-.025-.008h-2.706l.016 1.37h1.931v7.124l-6.606 1.477-.22-9.328-.005-.039c-.087-.32-.234-.475-.56-.594l-.028-.01h-2.732v1.369h2.023l.36 13.943 4.433-.013h2.156l4.862-.003v.003l.166-.002h.082l.162-.003v-.004c2.581-.068 4.03-.679 4.958-2.082.865-1.3 1.051-2.402 1.051-6.208v-6.381l-.01-.028c-.112-.306-.234-.48-.595-.584z"/><path fill="#bae15b" d="M73.942 31.029c-.522 0-.96.179-1.3.578-1.428 1.685-1.979 8.348 1.68 11.452 1.505 1.277 3.49 1.752 5.403 1.752 2.736 0 5.327-.972 6.168-1.964 1.428-1.684-1.292-4.49-4.95-7.593-2.792-2.368-5.323-4.225-7-4.225"/><path fill="#67b297" d="M94.38 37.705c-2.059 0-3.998 5.547-9.885 7.961-5.536 2.272-4.949 10.823-2.504 12.633.319.236.692.343 1.103.343 2.738 0 7.207-4.714 9.261-7.265 4.032-5.004 5.293-11.559 2.849-13.367-.283-.21-.555-.305-.824-.305"/><path fill="#f4956b" d="M77.174 55.755c2.233-1.945-2.115-8.445-4.409-11.306-3.914-4.883-9.883-7.454-12.115-5.51-2.234 1.944 3.836 4.886 5.037 11.788 1 5.74 9.254 6.972 11.488 5.028"/><path d="M84.422 31.105a1.097 1.097 0 01-1.06-.638 10.038 10.038 0 00-5.48 2.648c-2.725 2.582-3.694 6.663-2.516 10.215.517 1.56 1.43 3.166 1.247 4.863-.194 1.8-1.65 2.817-3.151 3.551a1.04 1.04 0 11-.17-.45c.854-.412 1.713-.904 2.274-1.672.593-.813.678-1.799.485-2.762-.353-1.748-1.291-3.307-1.554-5.084a10.571 10.571 0 01.593-5.338c1.338-3.453 4.543-5.91 8.173-6.44a1.097 1.097 0 111.159 1.107z"/></svg>