<svg xmlns="http://www.w3.org/2000/svg" width="42" height="43"><defs><filter id="a" width="62" height="66" x="-10" y="-13" filterUnits="userSpaceOnUse"><feOffset dy="3" in="SourceGraphic" result="FeOffset1043Out"/><feGaussianBlur in="FeOffset1043Out" result="FeGaussianBlur1044Out" stdDeviation="2.4 2.4"/></filter><mask id="b" width="2" height="2" x="-1" y="-1"><path fill="#fff" d="M6 3h30v31H6z"/><path d="M36 6.346c0 15.029-12.182 27.186-27.185 27.186a1.406 1.406 0 01-1.373-1.088L6.035 26.35a1.429 1.429 0 01.822-1.617l6.562-2.812a1.404 1.404 0 011.64.405l2.907 3.55a21.73 21.73 0 0010.382-10.382l-3.552-2.908a1.402 1.402 0 01-.402-1.64l2.812-6.562c.27-.62.947-.966 1.612-.814l6.092 1.404A1.41 1.41 0 0136 6.346z"/></mask></defs><g filter="url(#a)"><path fill="none" d="M36 6.346c0 15.029-12.182 27.186-27.185 27.186a1.406 1.406 0 01-1.373-1.088L6.035 26.35a1.429 1.429 0 01.822-1.617l6.562-2.812a1.404 1.404 0 011.64.405l2.907 3.55a21.73 21.73 0 0010.382-10.382l-3.552-2.908a1.402 1.402 0 01-.402-1.64l2.812-6.562c.27-.62.947-.966 1.612-.814l6.092 1.404A1.41 1.41 0 0136 6.346z" mask="url(&quot;#b&quot;)"/><path fill-opacity=".16" d="M36 6.346c0 15.029-12.182 27.186-27.185 27.186a1.406 1.406 0 01-1.373-1.088L6.035 26.35a1.429 1.429 0 01.822-1.617l6.562-2.812a1.404 1.404 0 011.64.405l2.907 3.55a21.73 21.73 0 0010.382-10.382l-3.552-2.908a1.402 1.402 0 01-.402-1.64l2.812-6.562c.27-.62.947-.966 1.612-.814l6.092 1.404A1.41 1.41 0 0136 6.346z"/></g><path fill="#fff" d="M36 6.346c0 15.029-12.182 27.186-27.185 27.186a1.406 1.406 0 01-1.373-1.088L6.035 26.35a1.429 1.429 0 01.822-1.617l6.562-2.812a1.404 1.404 0 011.64.405l2.907 3.55a21.73 21.73 0 0010.382-10.382l-3.552-2.908a1.402 1.402 0 01-.402-1.64l2.812-6.562c.27-.62.947-.966 1.612-.814l6.092 1.404A1.41 1.41 0 0136 6.346z"/></svg>